<svg width="19.107910" height="19.108643" viewBox="0 0 19.1079 19.1086" fill="none" xmlns="http://www.w3.org/2000/svg" xmlns:xlink="http://www.w3.org/1999/xlink">
	<desc>
			Created with Pixso.
	</desc>
	<defs/>
	<path id="Vector" d="M8.49 0C7.14 0 5.8 0.32 4.6 0.94C3.39 1.56 2.36 2.46 1.57 3.57C0.78 4.67 0.27 5.95 0.08 7.29C-0.11 8.63 0.02 10 0.46 11.28C0.91 12.56 1.65 13.72 2.63 14.65C3.62 15.59 4.81 16.27 6.11 16.65C7.41 17.03 8.78 17.1 10.11 16.84C11.44 16.58 12.69 16.01 13.76 15.17L17.41 18.82C17.6 19.01 17.85 19.11 18.11 19.1C18.37 19.1 18.62 19 18.81 18.81C19 18.63 19.1 18.37 19.1 18.11C19.11 17.85 19 17.6 18.82 17.41L15.17 13.76C16.16 12.5 16.77 11 16.95 9.41C17.12 7.82 16.84 6.22 16.14 4.79C15.45 3.35 14.36 2.14 13.01 1.29C11.65 0.44 10.09 -0.01 8.49 0ZM1.99 8.5C1.99 6.77 2.68 5.12 3.9 3.9C5.12 2.68 6.77 2 8.49 2C10.22 2 11.87 2.68 13.09 3.9C14.31 5.12 14.99 6.77 14.99 8.5C14.99 10.22 14.31 11.87 13.09 13.09C11.87 14.31 10.22 15 8.49 15C6.77 15 5.12 14.31 3.9 13.09C2.68 11.87 1.99 10.22 1.99 8.5Z" fill="#6B7C85" fill-opacity="1.000000" fill-rule="evenodd"/>
</svg>
